# Blender 5.0.1
# www.blender.org
mtllib smoke.mtl
o Cube
v -0.674935 -0.675344 0.674668
v -0.501611 0.499949 0.803073
v -0.674935 -0.675344 -0.674668
v -0.501611 0.499949 -0.803073
v 0.674995 -0.675311 0.674642
v 0.503734 0.500805 0.803054
v 0.674995 -0.675312 -0.674642
v 0.503734 0.500806 -0.803054
v -0.823971 -0.823783 -0.000000
v -0.771837 -0.068643 0.856158
v -0.771837 -0.068643 -0.856158
v -0.000012 -0.824341 -0.823412
v 0.001482 0.726660 -0.889069
v 0.768982 -0.070121 -0.857600
v 0.824035 -0.823719 0.000000
v 0.768981 -0.070121 0.857600
v -0.000012 -0.824341 0.823412
v 0.001482 0.726660 0.889069
v -1.093997 -0.164593 -0.000000
v -0.000025 -0.000640 -1.142584
v 1.089316 -0.171615 -0.000000
v -0.000025 -0.000640 1.142584
v -0.000000 -1.142585 0.000000
v 0.009278 1.142443 -0.000000
v -1.674791 0.331074 0.674655
v -1.674447 1.681023 0.674982
v -1.674791 0.331074 -0.674655
v -1.674447 1.681023 -0.674981
v -0.324529 1.681384 0.674668
v -0.324529 1.681384 -0.674668
v -1.823215 0.182036 0.000000
v -1.823573 1.006503 0.823644
v -1.823341 1.829916 0.000000
v -1.823573 1.006503 -0.823643
v -1.068498 0.235856 -0.857129
v -0.999922 1.830146 -0.823646
v -0.225601 1.073550 -0.855138
v -0.175493 1.829823 0.000000
v -0.225601 1.073550 0.855138
v -1.068498 0.235856 0.857130
v -0.999922 1.830146 0.823647
v -2.142049 1.006039 0.000000
v -0.999863 1.006446 -1.142584
v 0.098642 1.164000 0.000000
v -0.999863 1.006446 1.142585
v -1.167706 -0.085560 0.000000
v -0.999464 2.148624 0.000000
v 0.350773 1.681353 0.674642
v 0.350773 1.681353 -0.674642
v 1.701127 0.331132 0.674679
v 1.700752 1.681026 0.674975
v 1.701127 0.331132 -0.674679
v 1.700752 1.681026 -0.674975
v 0.254545 1.074995 0.856485
v 0.201733 1.829761 0.000000
v 0.254545 1.074995 -0.856485
v 1.093971 0.233078 -0.855538
v 1.026233 1.830155 -0.823638
v 1.849873 1.006491 -0.823646
v 1.849580 0.182099 0.000000
v 1.849643 1.829916 0.000000
v 1.849873 1.006491 0.823646
v 1.093971 0.233078 0.855538
v 1.026233 1.830155 0.823638
v -0.067779 1.171243 0.000000
v 1.026730 1.006982 -1.142582
v 2.168351 1.006039 0.000000
v 1.026730 1.006982 1.142582
v 1.186956 -0.090126 0.000000
v 1.025766 2.148624 0.000000
vn -0.5770 -0.5826 0.5724
vn -0.0199 -0.0053 0.9998
vn -0.5770 -0.5826 -0.5724
vn -0.0199 -0.0053 -0.9998
vn 0.5780 -0.5820 0.5720
vn 0.0256 -0.0020 0.9997
vn 0.5780 -0.5820 -0.5720
vn 0.0256 -0.0020 -0.9997
vn -0.7085 -0.7057 -0.0000
vn -0.5112 -0.2631 0.8182
vn -0.5112 -0.2631 -0.8182
vn -0.0002 -0.7140 -0.7001
vn 0.0026 0.2663 -0.9639
vn 0.4984 -0.2684 -0.8243
vn 0.7096 -0.7046 -0.0000
vn 0.4984 -0.2684 0.8243
vn -0.0002 -0.7140 0.7001
vn 0.0026 0.2663 0.9639
vn -0.8459 -0.5333 -0.0000
vn -0.0004 -0.0093 -1.0000
vn 0.8275 -0.5615 -0.0000
vn -0.0004 -0.0093 1.0000
vn -0.0000 -1.0000 -0.0000
vn 0.0181 0.9998 -0.0000
vn -0.5823 -0.5775 0.5722
vn -0.5774 0.5774 0.5773
vn -0.5823 -0.5775 -0.5722
vn -0.5774 0.5774 -0.5773
vn 0.5762 0.5830 0.5727
vn 0.5762 0.5830 -0.5727
vn -0.7052 -0.7090 -0.0000
vn -0.7106 0.0068 0.7036
vn -0.7071 0.7071 -0.0000
vn -0.7106 0.0068 -0.7036
vn -0.2617 -0.5014 -0.8247
vn -0.0066 0.7105 -0.7037
vn 0.5766 0.2073 -0.7903
vn 0.7077 0.7065 -0.0000
vn 0.5766 0.2073 0.7903
vn -0.2617 -0.5014 0.8247
vn -0.0066 0.7105 0.7037
vn -1.0000 -0.0000 -0.0000
vn -0.0038 0.0041 -1.0000
vn 0.9380 0.3467 -0.0000
vn -0.0038 0.0041 1.0000
vn -0.5485 -0.8361 -0.0000
vn -0.0000 1.0000 -0.0000
vn -0.5771 0.5825 0.5724
vn -0.5771 0.5825 -0.5724
vn 0.5829 -0.5765 0.5726
vn 0.5774 0.5774 0.5772
vn 0.5829 -0.5765 -0.5726
vn 0.5774 0.5774 -0.5772
vn -0.5629 0.2203 0.7966
vn -0.7086 0.7056 -0.0000
vn -0.5629 0.2203 -0.7966
vn 0.2571 -0.5144 -0.8181
vn 0.0068 0.7106 -0.7035
vn 0.7106 0.0067 -0.7036
vn 0.7062 -0.7080 -0.0000
vn 0.7071 0.7071 -0.0000
vn 0.7106 0.0067 0.7036
vn 0.2571 -0.5144 0.8181
vn 0.0068 0.7106 0.7035
vn -0.9262 0.3770 -0.0000
vn 0.0060 0.0058 -1.0000
vn 1.0000 -0.0000 -0.0000
vn 0.0060 0.0058 1.0000
vn 0.5202 -0.8540 -0.0000
vt 0.375000 0.000000
vt 0.500000 0.000000
vt 0.500000 0.125000
vt 0.375000 0.125000
vt 0.500000 0.250000
vt 0.375000 0.250000
vt 0.500000 0.375000
vt 0.375000 0.375000
vt 0.625000 0.250000
vt 0.625000 0.375000
vt 0.625000 0.500000
vt 0.500000 0.500000
vt 0.375000 0.500000
vt 0.500000 0.625000
vt 0.375000 0.625000
vt 0.500000 0.750000
vt 0.375000 0.750000
vt 0.500000 0.875000
vt 0.375000 0.875000
vt 0.625000 0.750000
vt 0.625000 0.875000
vt 0.625000 1.000000
vt 0.500000 1.000000
vt 0.375000 1.000000
vt 0.125000 0.500000
vt 0.250000 0.500000
vt 0.250000 0.625000
vt 0.125000 0.625000
vt 0.250000 0.750000
vt 0.125000 0.750000
vt 0.625000 0.000000
vt 0.625000 0.125000
vt 0.625000 0.625000
vt 0.750000 0.500000
vt 0.750000 0.625000
vt 0.875000 0.500000
vt 0.875000 0.625000
vt 0.875000 0.750000
vt 0.750000 0.750000
vt 0.000000 0.000000
s 1
f 1/1/1 10/2/10 19/3/19 9/4/9
f 9/4/9 19/3/19 11/5/11 3/6/3
f 3/6/3 11/5/11 20/7/20 12/8/12
f 11/5/11 4/9/4 13/10/13 20/7/20
f 20/7/20 13/10/13 8/11/8 14/12/14
f 12/8/12 20/7/20 14/12/14 7/13/7
f 7/13/7 14/12/14 21/14/21 15/15/15
f 15/15/15 21/14/21 16/16/16 5/17/5
f 5/17/5 16/16/16 22/18/22 17/19/17
f 16/16/16 6/20/6 18/21/18 22/18/22
f 22/18/22 18/21/18 2/22/2 10/23/10
f 17/19/17 22/18/22 10/23/10 1/24/1
f 3/25/3 12/26/12 23/27/23 9/28/9
f 12/26/12 7/13/7 15/15/15 23/27/23
f 23/27/23 15/15/15 5/17/5 17/29/17
f 9/28/9 23/27/23 17/29/17 1/30/1
f 25/1/25 32/2/32 42/3/42 31/4/31
f 32/2/32 26/31/26 33/32/33 42/3/42
f 42/3/42 33/32/33 28/9/28 34/5/34
f 31/4/31 42/3/42 34/5/34 27/6/27
f 27/6/27 34/5/34 43/7/43 35/8/35
f 34/5/34 28/9/28 36/10/36 43/7/43
f 43/7/43 36/10/36 30/11/30 37/12/37
f 35/8/35 43/7/43 37/12/37 4/13/4
f 37/12/37 30/11/30 38/33/38 44/14/44
f 44/14/44 38/33/38 29/20/29 39/16/39
f 2/17/2 39/16/39 45/18/45 40/19/40
f 39/16/39 29/20/29 41/21/41 45/18/45
f 45/18/45 41/21/41 26/22/26 32/23/32
f 40/19/40 45/18/45 32/23/32 25/24/25
f 27/25/27 35/26/35 46/27/46 31/28/31
f 31/28/31 46/27/46 40/29/40 25/30/25
f 30/11/30 36/34/36 47/35/47 38/33/38
f 36/34/36 28/36/28 33/37/33 47/35/47
f 47/35/47 33/37/33 26/38/26 41/39/41
f 38/33/38 47/35/47 41/39/41 29/20/29
f 54/2/54 48/31/48 55/32/55 65/3/65
f 65/3/65 55/32/55 49/9/49 56/5/56
f 8/6/8 56/5/56 66/7/66 57/8/57
f 56/5/56 49/9/49 58/10/58 66/7/66
f 66/7/66 58/10/58 53/11/53 59/12/59
f 57/8/57 66/7/66 59/12/59 52/13/52
f 52/13/52 59/12/59 67/14/67 60/15/60
f 59/12/59 53/11/53 61/33/61 67/14/67
f 67/14/67 61/33/61 51/20/51 62/16/62
f 60/15/60 67/14/67 62/16/62 50/17/50
f 50/17/50 62/16/62 68/18/68 63/19/63
f 62/16/62 51/20/51 64/21/64 68/18/68
f 68/18/68 64/21/64 48/22/48 54/23/54
f 63/19/63 68/18/68 54/23/54 6/24/6
f 57/26/57 52/13/52 60/15/60 69/27/69
f 69/27/69 60/15/60 50/17/50 63/29/63
f 53/11/53 58/34/58 70/35/47 61/33/61
f 58/34/58 49/36/49 55/37/55 70/35/47
f 70/35/47 55/37/55 48/38/48 64/39/64
f 61/33/61 70/35/47 64/39/64 51/20/51
f 2/17/2 18/21/18 39/16/39
f 18/21/18 6/24/6 54/23/54
f 24/40/24 44/14/44 39/16/39 18/21/18
f 24/40/24 18/21/18 54/2/54 65/3/65
f 24/40/24 65/3/65 56/5/56 13/40/13
f 24/40/24 13/40/13 37/12/37 44/14/44
f 4/13/4 37/12/37 13/40/13
f 8/6/8 13/40/13 56/5/56
f 11/5/11 35/8/35 4/13/4
f 19/3/19 46/27/46 35/26/35 11/5/11
f 19/3/19 10/2/10 40/29/40 46/27/46
f 2/17/2 40/19/40 10/2/10
f 16/16/16 63/19/63 6/24/6
f 21/14/21 69/27/69 63/29/63 16/16/16
f 21/14/21 14/12/14 57/26/57 69/27/69
f 8/6/8 57/8/57 14/12/14
